<svg width="10" height="13" viewBox="0 0 10 13" fill="none" xmlns="http://www.w3.org/2000/svg">
<path d="M4.432 12.192C3.65333 12.192 2.88 12.0907 2.112 11.888C1.35467 11.6747 0.704 11.376 0.16 10.992L1.184 9.008C1.61067 9.31733 2.10133 9.56267 2.656 9.744C3.22133 9.92533 3.792 10.016 4.368 10.016C5.01867 10.016 5.53067 9.888 5.904 9.632C6.27733 9.376 6.464 9.01867 6.464 8.56C6.464 8.272 6.38933 8.016 6.24 7.792C6.09067 7.568 5.824 7.39733 5.44 7.28C5.06667 7.16267 4.53867 7.104 3.856 7.104H0.992L1.568 0.799999H8.4V2.88H2.496L3.84 1.696L3.44 6.192L2.096 5.008H4.464C5.57333 5.008 6.464 5.16267 7.136 5.472C7.81867 5.77067 8.31467 6.18133 8.624 6.704C8.93333 7.22667 9.088 7.81867 9.088 8.48C9.088 9.14133 8.92267 9.75467 8.592 10.32C8.26133 10.8747 7.74933 11.328 7.056 11.68C6.37333 12.0213 5.49867 12.192 4.432 12.192Z" fill="white"/>
</svg>
