<svg width="36" height="40" viewBox="0 0 36 40" fill="none" xmlns="http://www.w3.org/2000/svg">
<path d="M32 23.172V16C32 9.566 27.63 4.146 21.71 2.516C21.124 1.04 19.692 0 18 0C16.308 0 14.876 1.04 14.29 2.516C8.37 4.148 4 9.566 4 16V23.172L0.586002 26.586C0.399917 26.7714 0.252341 26.9918 0.151771 27.2345C0.0512003 27.4771 -0.000378898 27.7373 2.09535e-06 28V32C2.09535e-06 32.5304 0.210716 33.0391 0.585788 33.4142C0.960861 33.7893 1.46957 34 2 34H34C34.5304 34 35.0391 33.7893 35.4142 33.4142C35.7893 33.0391 36 32.5304 36 32V28C36.0004 27.7373 35.9488 27.4771 35.8482 27.2345C35.7477 26.9918 35.6001 26.7714 35.414 26.586L32 23.172ZM32 30H4V28.828L7.414 25.414C7.60009 25.2286 7.74766 25.0082 7.84823 24.7655C7.9488 24.5229 8.00038 24.2627 8 24V16C8 10.486 12.486 6 18 6C23.514 6 28 10.486 28 16V24C28 24.532 28.21 25.04 28.586 25.414L32 28.828V30ZM18 40C19.2386 40.0016 20.4469 39.6172 21.457 38.9003C22.467 38.1835 23.2287 37.1697 23.636 36H12.364C12.7713 37.1697 13.533 38.1835 14.543 38.9003C15.5531 39.6172 16.7614 40.0016 18 40Z" fill="#F0909D"/>
</svg>
