<svg width="45" height="48" viewBox="0 0 45 48" fill="none" xmlns="http://www.w3.org/2000/svg">
<path d="M35 31.172V24C35 17.566 30.63 12.146 24.71 10.516C24.124 9.04 22.692 8 21 8C19.308 8 17.876 9.04 17.29 10.516C11.37 12.148 7 17.566 7 24V31.172L3.586 34.586C3.39992 34.7714 3.25234 34.9918 3.15177 35.2345C3.0512 35.4771 2.99962 35.7373 3 36V40C3 40.5304 3.21072 41.0391 3.58579 41.4142C3.96086 41.7893 4.46957 42 5 42H37C37.5304 42 38.0391 41.7893 38.4142 41.4142C38.7893 41.0391 39 40.5304 39 40V36C39.0004 35.7373 38.9488 35.4771 38.8482 35.2345C38.7477 34.9918 38.6001 34.7714 38.414 34.586L35 31.172ZM35 38H7V36.828L10.414 33.414C10.6001 33.2286 10.7477 33.0082 10.8482 32.7655C10.9488 32.5229 11.0004 32.2627 11 32V24C11 18.486 15.486 14 21 14C26.514 14 31 18.486 31 24V32C31 32.532 31.21 33.04 31.586 33.414L35 36.828V38ZM21 48C22.2386 48.0016 23.4469 47.6172 24.457 46.9003C25.467 46.1835 26.2287 45.1697 26.636 44H15.364C15.7713 45.1697 16.533 46.1835 17.543 46.9003C18.5531 47.6172 19.7614 48.0016 21 48Z" fill="#F0909D"/>
<circle cx="33.5" cy="16.5" r="9.5" fill="#F0909D"/>
<path d="M33.432 22.192C32.6533 22.192 31.88 22.0907 31.112 21.888C30.3547 21.6747 29.704 21.376 29.16 20.992L30.184 19.008C30.6107 19.3173 31.1013 19.5627 31.656 19.744C32.2213 19.9253 32.792 20.016 33.368 20.016C34.0187 20.016 34.5307 19.888 34.904 19.632C35.2773 19.376 35.464 19.0187 35.464 18.56C35.464 18.272 35.3893 18.016 35.24 17.792C35.0907 17.568 34.824 17.3973 34.44 17.28C34.0667 17.1627 33.5387 17.104 32.856 17.104H29.992L30.568 10.8H37.4V12.88H31.496L32.84 11.696L32.44 16.192L31.096 15.008H33.464C34.5733 15.008 35.464 15.1627 36.136 15.472C36.8187 15.7707 37.3147 16.1813 37.624 16.704C37.9333 17.2267 38.088 17.8187 38.088 18.48C38.088 19.1413 37.9227 19.7547 37.592 20.32C37.2613 20.8747 36.7493 21.328 36.056 21.68C35.3733 22.0213 34.4987 22.192 33.432 22.192Z" fill="white"/>
</svg>
