<svg width="41" height="41" viewBox="0 0 41 41" fill="none" xmlns="http://www.w3.org/2000/svg">
<path d="M20.4003 7.79546L20.5008 7.88618L20.6013 7.79547C22.4856 6.09481 24.9523 5.15043 27.5129 5.15C28.8667 5.15103 30.2068 5.41475 31.4563 5.92595C32.7058 6.43715 33.8399 7.18571 34.7934 8.12845L34.7935 8.12858C38.8684 12.1479 38.868 18.4173 34.7973 22.4138L21.7855 35.1883L21.777 35.1967L21.7699 35.2063C21.6245 35.4033 21.4339 35.5643 21.2132 35.6762C20.9927 35.788 20.7484 35.8475 20.5 35.85C19.8892 35.8497 19.365 35.5432 19.0951 35.0772L19.0849 35.0596L19.0704 35.0453L6.20427 22.4138L6.20425 22.4138C2.13347 18.4189 2.13145 12.1478 6.20099 8.13549L6.20121 8.13527C7.15521 7.19078 8.29021 6.44069 9.54093 5.92831C10.7916 5.41593 12.1333 5.1514 13.4887 5.15C16.0493 5.1501 18.5161 6.09453 20.4003 7.79546ZM32.5229 10.351L32.5224 10.3505C29.8145 7.70434 25.2255 7.69716 22.5138 10.3541L22.5137 10.3542L21.6363 11.2156L21.6362 11.2157C21.4875 11.362 21.3106 11.4782 21.1158 11.5576C20.9209 11.6369 20.7119 11.6778 20.5008 11.6778C20.2896 11.6778 20.0807 11.6369 19.8858 11.5576C19.6909 11.4782 19.5141 11.362 19.3653 11.2157L19.3652 11.2156L18.4878 10.3542C17.1371 9.02812 15.3623 8.29559 13.4886 8.29559C11.615 8.29559 9.83332 9.02808 8.47215 10.3574L8.47159 10.3579C5.67646 13.1162 5.67441 17.4402 8.47534 20.1918L8.47537 20.1918L20.3957 31.8948L20.5008 31.998L20.6059 31.8948L32.5262 20.1918L32.5262 20.1918C35.3272 17.4401 35.325 13.1161 32.5229 10.351Z" fill="#1D2837" stroke="white" stroke-width="0.3"/>
</svg>
