<svg width="189" height="29" viewBox="0 0 189 29" fill="none" xmlns="http://www.w3.org/2000/svg">
<path d="M0.562 28V5.236H8.164V11.872L7.03 9.982C7.702 8.274 8.794 7 10.306 6.16C11.818 5.292 13.652 4.858 15.808 4.858V12.04C15.444 11.984 15.122 11.956 14.842 11.956C14.59 11.928 14.31 11.914 14.002 11.914C12.378 11.914 11.062 12.362 10.054 13.258C9.046 14.126 8.542 15.554 8.542 17.542V28H0.562ZM30.32 28.378C27.828 28.378 25.616 27.874 23.684 26.866C21.752 25.858 20.226 24.472 19.106 22.708C18.014 20.916 17.468 18.872 17.468 16.576C17.468 14.28 18.014 12.25 19.106 10.486C20.226 8.722 21.752 7.35 23.684 6.37C25.616 5.362 27.828 4.858 30.32 4.858C32.812 4.858 35.024 5.362 36.956 6.37C38.916 7.35 40.442 8.722 41.534 10.486C42.626 12.25 43.172 14.28 43.172 16.576C43.172 18.872 42.626 20.916 41.534 22.708C40.442 24.472 38.916 25.858 36.956 26.866C35.024 27.874 32.812 28.378 30.32 28.378ZM30.32 22.036C31.244 22.036 32.056 21.826 32.756 21.406C33.484 20.986 34.058 20.37 34.478 19.558C34.898 18.718 35.108 17.724 35.108 16.576C35.108 15.428 34.898 14.462 34.478 13.678C34.058 12.866 33.484 12.25 32.756 11.83C32.056 11.41 31.244 11.2 30.32 11.2C29.424 11.2 28.612 11.41 27.884 11.83C27.184 12.25 26.61 12.866 26.162 13.678C25.742 14.462 25.532 15.428 25.532 16.576C25.532 17.724 25.742 18.718 26.162 19.558C26.61 20.37 27.184 20.986 27.884 21.406C28.612 21.826 29.424 22.036 30.32 22.036ZM58.2926 28.378C55.8006 28.378 53.5886 27.874 51.6566 26.866C49.7246 25.858 48.1986 24.472 47.0786 22.708C45.9866 20.916 45.4406 18.872 45.4406 16.576C45.4406 14.28 45.9866 12.25 47.0786 10.486C48.1986 8.722 49.7246 7.35 51.6566 6.37C53.5886 5.362 55.8006 4.858 58.2926 4.858C60.7846 4.858 62.9966 5.362 64.9286 6.37C66.8886 7.35 68.4146 8.722 69.5066 10.486C70.5986 12.25 71.1446 14.28 71.1446 16.576C71.1446 18.872 70.5986 20.916 69.5066 22.708C68.4146 24.472 66.8886 25.858 64.9286 26.866C62.9966 27.874 60.7846 28.378 58.2926 28.378ZM58.2926 22.036C59.2166 22.036 60.0286 21.826 60.7286 21.406C61.4566 20.986 62.0306 20.37 62.4506 19.558C62.8706 18.718 63.0806 17.724 63.0806 16.576C63.0806 15.428 62.8706 14.462 62.4506 13.678C62.0306 12.866 61.4566 12.25 60.7286 11.83C60.0286 11.41 59.2166 11.2 58.2926 11.2C57.3966 11.2 56.5846 11.41 55.8566 11.83C55.1566 12.25 54.5826 12.866 54.1346 13.678C53.7146 14.462 53.5046 15.428 53.5046 16.576C53.5046 17.724 53.7146 18.718 54.1346 19.558C54.5826 20.37 55.1566 20.986 55.8566 21.406C56.5846 21.826 57.3966 22.036 58.2926 22.036ZM104.493 4.858C106.257 4.858 107.825 5.222 109.197 5.95C110.597 6.65 111.689 7.742 112.473 9.226C113.285 10.71 113.691 12.628 113.691 14.98V28H105.711V16.282C105.711 14.658 105.403 13.482 104.787 12.754C104.171 11.998 103.331 11.62 102.267 11.62C101.511 11.62 100.825 11.802 100.209 12.166C99.5933 12.53 99.1173 13.09 98.7813 13.846C98.4453 14.574 98.2773 15.526 98.2773 16.702V28H90.2973V16.282C90.2973 14.658 89.9893 13.482 89.3733 12.754C88.7853 11.998 87.9453 11.62 86.8533 11.62C86.0693 11.62 85.3693 11.802 84.7533 12.166C84.1653 12.53 83.6893 13.09 83.3253 13.846C82.9893 14.574 82.8213 15.526 82.8213 16.702V28H74.8413V5.236H82.4433V11.578L80.9313 9.772C81.7713 8.148 82.9193 6.93 84.3753 6.118C85.8313 5.278 87.4553 4.858 89.2473 4.858C91.2913 4.858 93.0833 5.39 94.6233 6.454C96.1913 7.49 97.2413 9.114 97.7733 11.326L95.1693 10.78C95.9813 8.932 97.1993 7.49 98.8233 6.454C100.475 5.39 102.365 4.858 104.493 4.858ZM130.943 28.378C128.255 28.378 125.903 27.874 123.887 26.866C121.899 25.83 120.345 24.43 119.225 22.666C118.133 20.874 117.587 18.844 117.587 16.576C117.587 14.308 118.119 12.292 119.183 10.528C120.275 8.736 121.773 7.35 123.677 6.37C125.581 5.362 127.723 4.858 130.103 4.858C132.343 4.858 134.387 5.32 136.235 6.244C138.083 7.14 139.553 8.47 140.645 10.234C141.737 11.998 142.283 14.14 142.283 16.66C142.283 16.94 142.269 17.262 142.241 17.626C142.213 17.99 142.185 18.326 142.157 18.634H124.139V14.434H137.915L134.891 15.61C134.919 14.574 134.723 13.678 134.303 12.922C133.911 12.166 133.351 11.578 132.623 11.158C131.923 10.738 131.097 10.528 130.145 10.528C129.193 10.528 128.353 10.738 127.625 11.158C126.925 11.578 126.379 12.18 125.987 12.964C125.595 13.72 125.399 14.616 125.399 15.652V16.87C125.399 17.99 125.623 18.956 126.071 19.768C126.547 20.58 127.219 21.21 128.087 21.658C128.955 22.078 129.991 22.288 131.195 22.288C132.315 22.288 133.267 22.134 134.051 21.826C134.863 21.49 135.661 20.986 136.445 20.314L140.645 24.682C139.553 25.886 138.209 26.81 136.613 27.454C135.017 28.07 133.127 28.378 130.943 28.378ZM157.89 28.378C155.202 28.378 152.85 27.874 150.834 26.866C148.846 25.83 147.292 24.43 146.172 22.666C145.08 20.874 144.534 18.844 144.534 16.576C144.534 14.308 145.066 12.292 146.13 10.528C147.222 8.736 148.72 7.35 150.624 6.37C152.528 5.362 154.67 4.858 157.05 4.858C159.29 4.858 161.334 5.32 163.182 6.244C165.03 7.14 166.5 8.47 167.592 10.234C168.684 11.998 169.23 14.14 169.23 16.66C169.23 16.94 169.216 17.262 169.188 17.626C169.16 17.99 169.132 18.326 169.104 18.634H151.086V14.434H164.862L161.838 15.61C161.866 14.574 161.67 13.678 161.25 12.922C160.858 12.166 160.298 11.578 159.57 11.158C158.87 10.738 158.044 10.528 157.092 10.528C156.14 10.528 155.3 10.738 154.572 11.158C153.872 11.578 153.326 12.18 152.934 12.964C152.542 13.72 152.346 14.616 152.346 15.652V16.87C152.346 17.99 152.57 18.956 153.018 19.768C153.494 20.58 154.166 21.21 155.034 21.658C155.902 22.078 156.938 22.288 158.142 22.288C159.262 22.288 160.214 22.134 160.998 21.826C161.81 21.49 162.608 20.986 163.392 20.314L167.592 24.682C166.5 25.886 165.156 26.81 163.56 27.454C161.964 28.07 160.074 28.378 157.89 28.378ZM183.074 28.378C180.162 28.378 177.894 27.664 176.27 26.236C174.646 24.78 173.834 22.596 173.834 19.684V0.153998H181.814V19.6C181.814 20.412 182.038 21.056 182.486 21.532C182.934 21.98 183.508 22.204 184.208 22.204C185.16 22.204 185.972 21.966 186.644 21.49L188.618 27.076C187.946 27.524 187.12 27.846 186.14 28.042C185.16 28.266 184.138 28.378 183.074 28.378ZM170.516 12.04V6.076H187.022V12.04H170.516Z" fill="#F0909D"/>
</svg>
