<svg width="35" height="37" viewBox="0 0 35 37" fill="none" xmlns="http://www.w3.org/2000/svg">
<path d="M0.929293 15.9307C0.910537 15.9495 0.9 15.9749 0.9 16.0014V36C0.9 36.0552 0.944772 36.1 1 36.1H14.0722C14.1274 36.1 14.1722 36.0552 14.1722 36V23.622H21.1025V36C21.1025 36.0552 21.1472 36.1 21.2025 36.1H34.2747C34.3299 36.1 34.3746 36.0552 34.3746 36V15.943C34.3746 15.915 34.3629 15.8883 34.3424 15.8694L33.5748 15.1632L18.8249 1.59328C18.3264 1.13466 17.67 0.886468 16.9928 0.90057C16.3156 0.914672 15.67 1.18998 15.191 1.66895L1.62546 15.2346L0.929293 15.9307ZM3.47676 17.0276L17.051 3.55611L31.7979 17.03V33.5232H23.6792V23.522C23.6792 22.8651 23.4183 22.2352 22.9538 21.7707C22.4893 21.3062 21.8593 21.0452 21.2025 21.0452H14.0722C13.4153 21.0452 12.7853 21.3062 12.3208 21.7707C11.8564 22.2352 11.5954 22.8651 11.5954 23.522V33.5232H3.47676V17.0276Z" fill="#F0909D" stroke="#F0909D" stroke-width="0.2" stroke-linejoin="round"/>
</svg>
