<svg width="42" height="42" viewBox="0 0 42 42" fill="none" xmlns="http://www.w3.org/2000/svg">
<path d="M8.9 31.5V31.35H8.75H7C5.15259 31.35 3.65 29.8474 3.65 28V14C3.65 12.1526 5.15259 10.65 7 10.65H28C29.8474 10.65 31.35 12.1526 31.35 14V28C31.35 29.8474 29.8474 31.35 28 31.35H19.7348H19.6932L19.6576 31.3714L11.3241 36.3711L8.9 37.8256V31.5ZM7 13.85H6.85V14V28V28.15H7H12.1V31.9095V32.1744L12.3272 32.0381L18.8068 28.15H28H28.15V28V14V13.85H28H7Z" fill="#1D2837" stroke="white" stroke-width="0.3"/>
<path d="M14 3.65H35C36.8474 3.65 38.35 5.15259 38.35 7V21C38.35 22.7971 36.9281 24.268 35.15 24.3467V10.5C35.15 8.48691 33.5131 6.85 31.5 6.85H10.6533C10.732 5.07194 12.2029 3.65 14 3.65Z" fill="#1D2837" stroke="white" stroke-width="0.3"/>
</svg>
