<svg width="58" height="58" viewBox="0 0 58 58" fill="none" xmlns="http://www.w3.org/2000/svg">
<rect width="58" height="58" rx="10" fill="#8B8B8B" fill-opacity="0.3"/>
<path d="M37.0611 30.5866V25.8663C37.0611 21.6317 34.1849 18.0645 30.2886 16.9917C29.903 16.0202 28.9605 15.3357 27.8469 15.3357C26.7333 15.3357 25.7908 16.0202 25.4051 16.9917C21.5088 18.0658 18.6326 21.6317 18.6326 25.8663V30.5866L16.3857 32.8335C16.2632 32.9556 16.1661 33.1006 16.0999 33.2603C16.0337 33.4201 15.9998 33.5913 16 33.7642V36.3968C16 36.7459 16.1387 37.0807 16.3855 37.3276C16.6324 37.5745 16.9672 37.7131 17.3163 37.7131H38.3774C38.7265 37.7131 39.0613 37.5745 39.3082 37.3276C39.5551 37.0807 39.6937 36.7459 39.6937 36.3968V33.7642C39.694 33.5913 39.66 33.4201 39.5938 33.2603C39.5277 33.1006 39.4305 32.9556 39.3081 32.8335L37.0611 30.5866ZM37.0611 35.0805H18.6326V34.3091L20.8796 32.0622C21.0021 31.9402 21.0992 31.7951 21.1654 31.6354C21.2316 31.4757 21.2655 31.3044 21.2653 31.1315V25.8663C21.2653 22.2372 24.2178 19.2847 27.8469 19.2847C31.476 19.2847 34.4285 22.2372 34.4285 25.8663V31.1315C34.4285 31.4817 34.5667 31.816 34.8141 32.0622L37.0611 34.3091V35.0805ZM27.8469 41.6621C28.6621 41.6631 29.4573 41.4101 30.1221 40.9383C30.7869 40.4665 31.2882 39.7993 31.5563 39.0295H24.1375C24.4056 39.7993 24.9068 40.4665 25.5716 40.9383C26.2364 41.4101 27.0317 41.6631 27.8469 41.6621Z" fill="#181818" stroke="#FCEEF0" stroke-width="0.1"/>
</svg>
